<svg width="44" height="44" viewBox="0 0 44 44" fill="none" xmlns="http://www.w3.org/2000/svg">
<rect width="44" height="44" rx="8" fill="#F4F0FE"/>
<path d="M12 12H13.74C14.82 12 15.67 12.93 15.58 14L14.75 23.96C14.61 25.59 15.9 26.99 17.54 26.99H28.19C29.63 26.99 30.89 25.81 31 24.38L31.54 16.88C31.66 15.22 30.4 13.87 28.73 13.87H15.82" stroke="#6926D7" stroke-width="1.5" stroke-miterlimit="10" stroke-linecap="round" stroke-linejoin="round"/>
<path d="M26.25 32C26.9404 32 27.5 31.4404 27.5 30.75C27.5 30.0596 26.9404 29.5 26.25 29.5C25.5596 29.5 25 30.0596 25 30.75C25 31.4404 25.5596 32 26.25 32Z" stroke="#6926D7" stroke-width="1.5" stroke-miterlimit="10" stroke-linecap="round" stroke-linejoin="round"/>
<path d="M18.25 32C18.9404 32 19.5 31.4404 19.5 30.75C19.5 30.0596 18.9404 29.5 18.25 29.5C17.5596 29.5 17 30.0596 17 30.75C17 31.4404 17.5596 32 18.25 32Z" stroke="#6926D7" stroke-width="1.5" stroke-miterlimit="10" stroke-linecap="round" stroke-linejoin="round"/>
<path d="M19 18H31" stroke="#6926D7" stroke-width="1.5" stroke-miterlimit="10" stroke-linecap="round" stroke-linejoin="round"/>
</svg>
