<svg width="44" height="44" viewBox="0 0 44 44" fill="none" xmlns="http://www.w3.org/2000/svg">
<rect width="44" height="44" rx="8" fill="#007AFF" fill-opacity="0.15"/>
<path d="M13 30.5C12.4477 30.5 12 30.0523 12 29.5V23.5C12 22.9477 12.4477 22.5 13 22.5H19C19.5523 22.5 20 22.9477 20 23.5V29.5C20 30.0523 19.5523 30.5 19 30.5H13ZM14 28.5H18V24.5H14V28.5ZM17.2831 20C16.5021 20 16.0226 19.1449 16.4298 18.4785L20.1467 12.3963C20.5366 11.7582 21.4634 11.7582 21.8533 12.3963L25.5702 18.4785C25.9774 19.1449 25.4979 20 24.7169 20H17.2831ZM19.05 18H22.95L21 14.85L19.05 18ZM32.275 32.25C31.8884 32.6366 31.2616 32.6366 30.875 32.25L28.925 30.3C28.575 30.5333 28.196 30.7083 27.788 30.825C27.38 30.9417 26.9507 31 26.5 31C25.25 31 24.1877 30.5627 23.313 29.688C22.4383 28.8133 22.0007 27.7507 22 26.5C21.9993 25.2493 22.437 24.187 23.313 23.313C24.189 22.439 25.2513 22.0013 26.5 22C27.7487 21.9987 28.8113 22.4363 29.688 23.313C30.5647 24.1897 31.002 25.252 31 26.5C31 26.9333 30.9417 27.3543 30.825 27.763C30.7083 28.1717 30.5417 28.5507 30.325 28.9L32.275 30.85C32.6616 31.2366 32.6616 31.8634 32.275 32.25ZM26.5 29C27.2 29 27.7917 28.7583 28.275 28.275C28.7583 27.7917 29 27.2 29 26.5C29 25.8 28.7583 25.2083 28.275 24.725C27.7917 24.2417 27.2 24 26.5 24C25.8 24 25.2083 24.2417 24.725 24.725C24.2417 25.2083 24 25.8 24 26.5C24 27.2 24.2417 27.7917 24.725 28.275C25.2083 28.7583 25.8 29 26.5 29Z" fill="#007AFF"/>
</svg>
