<svg width="18" height="18" viewBox="0 0 18 18" fill="none" xmlns="http://www.w3.org/2000/svg">
<circle cx="9" cy="9" r="9" fill="#04CE00"/>
<path d="M11.0206 8.04109L10.7791 8.28259C9.48683 9.57486 8.19444 10.8672 6.90192 12.1598C6.64045 12.4212 6.33151 12.4785 6.02295 12.3357C5.72569 12.1959 5.56256 11.9401 5.60588 11.6308C5.64481 11.4073 5.75025 11.2008 5.90842 11.0382C7.15811 9.76587 8.424 8.50977 9.685 7.24878L9.92386 7.00992C9.84679 6.99674 9.76907 6.98769 9.69103 6.98279C9.18542 6.98053 8.67944 6.98543 8.17422 6.97902C7.7741 6.9745 7.49794 6.6991 7.49267 6.31631C7.48739 5.89887 7.73793 5.61894 8.15651 5.6163C9.31942 5.60877 10.4817 5.60789 11.6434 5.61367C12.1132 5.6163 12.3777 5.87024 12.3863 6.33477C12.4077 7.48789 12.4204 8.64114 12.4244 9.79451C12.4259 10.2172 12.1509 10.4659 11.7308 10.4625C11.3344 10.4587 11.0737 10.204 11.0617 9.79337C11.0488 9.30586 11.0477 8.81796 11.0406 8.33006C11.0391 8.2532 11.0293 8.17785 11.0206 8.04109Z" fill="white"/>
</svg>
