<svg width="18" height="18" viewBox="0 0 18 18" fill="none" xmlns="http://www.w3.org/2000/svg">
<circle cx="9" cy="9" r="9" transform="rotate(-180 9 9)" fill="#FF3B30"/>
<path d="M6.97941 9.95888L7.22091 9.71738C8.51317 8.42511 9.80556 7.13272 11.0981 5.8402C11.3595 5.57874 11.6685 5.52147 11.977 5.66426C12.2743 5.80403 12.4374 6.05985 12.3941 6.36917C12.3552 6.59265 12.2498 6.79919 12.0916 6.9618C10.8419 8.2341 9.576 9.49019 8.315 10.7512L8.07614 10.9901C8.15321 11.0032 8.23093 11.0123 8.30897 11.0172C8.81458 11.0194 9.32056 11.0145 9.82578 11.0209C10.2259 11.0255 10.5021 11.3009 10.5073 11.6837C10.5126 12.1011 10.2621 12.381 9.84349 12.3837C8.68058 12.3912 7.51829 12.3921 6.35663 12.3863C5.88682 12.3837 5.62234 12.1297 5.61367 11.6652C5.59233 10.5121 5.57964 9.35883 5.57562 8.20546C5.57412 7.78275 5.84915 7.53409 6.26923 7.53748C6.66557 7.54125 6.92629 7.79593 6.93834 8.20659C6.95115 8.69411 6.95228 9.18201 6.95944 9.66991C6.96095 9.74676 6.97074 9.82211 6.97941 9.95888Z" fill="white"/>
</svg>
