<svg width="44" height="44" viewBox="0 0 44 44" fill="none" xmlns="http://www.w3.org/2000/svg">
<rect width="44" height="44" rx="8" fill="#FEF6EB"/>
<path d="M13.17 17.44L22 22.55L30.77 17.47" stroke="#FF9500" stroke-width="1.5" stroke-linecap="round" stroke-linejoin="round"/>
<path d="M22 31.61V22.54" stroke="#FF9500" stroke-width="1.5" stroke-linecap="round" stroke-linejoin="round"/>
<path d="M19.93 12.48L14.59 15.44C13.38 16.11 12.39 17.79 12.39 19.17V24.82C12.39 26.2 13.38 27.88 14.59 28.55L19.93 31.52C21.07 32.15 22.94 32.15 24.08 31.52L29.42 28.55C30.63 27.88 31.62 26.2 31.62 24.82V19.17C31.62 17.79 30.63 16.11 29.42 15.44L24.08 12.47C22.93 11.84 21.07 11.84 19.93 12.48Z" stroke="#FF9500" stroke-width="1.5" stroke-linecap="round" stroke-linejoin="round"/>
</svg>
