<svg width="44" height="44" viewBox="0 0 44 44" fill="none" xmlns="http://www.w3.org/2000/svg">
<rect width="44" height="44" rx="8" fill="#E9F8F3"/>
<path d="M25 12V22C25 23.1 24.1 24 23 24H12V17.62C12.73 18.49 13.85 19.03 15.09 19C16.1 18.98 17.01 18.59 17.69 17.94C18 17.68 18.26 17.35 18.46 16.99C18.82 16.38 19.02 15.66 19 14.91C18.97 13.74 18.45 12.71 17.64 12H25Z" stroke="#3D744B" stroke-width="1.5" stroke-linecap="round" stroke-linejoin="round"/>
<path d="M32 24V27C32 28.66 30.66 30 29 30H28C28 28.9 27.1 28 26 28C24.9 28 24 28.9 24 30H20C20 28.9 19.1 28 18 28C16.9 28 16 28.9 16 30H15C13.34 30 12 28.66 12 27V24H23C24.1 24 25 23.1 25 22V15H26.84C27.56 15 28.22 15.39 28.58 16.01L30.29 19H29C28.45 19 28 19.45 28 20V23C28 23.55 28.45 24 29 24H32Z" stroke="#3D744B" stroke-width="1.5" stroke-linecap="round" stroke-linejoin="round"/>
<path d="M18 32C19.1046 32 20 31.1046 20 30C20 28.8954 19.1046 28 18 28C16.8954 28 16 28.8954 16 30C16 31.1046 16.8954 32 18 32Z" stroke="#3D744B" stroke-width="1.5" stroke-linecap="round" stroke-linejoin="round"/>
<path d="M26 32C27.1046 32 28 31.1046 28 30C28 28.8954 27.1046 28 26 28C24.8954 28 24 28.8954 24 30C24 31.1046 24.8954 32 26 32Z" stroke="#3D744B" stroke-width="1.5" stroke-linecap="round" stroke-linejoin="round"/>
<path d="M32 22V24H29C28.45 24 28 23.55 28 23V20C28 19.45 28.45 19 29 19H30.29L32 22Z" stroke="#3D744B" stroke-width="1.5" stroke-linecap="round" stroke-linejoin="round"/>
<path d="M18.9999 14.91C19.0199 15.66 18.8199 16.38 18.4599 16.99C18.2599 17.35 17.9999 17.68 17.6899 17.94C17.0099 18.59 16.1 18.98 15.09 19C13.85 19.03 12.7299 18.49 11.9999 17.62C11.8599 17.47 11.7399 17.3 11.6299 17.13C11.2399 16.54 11.0199 15.84 10.9999 15.09C10.9699 13.83 11.5299 12.68 12.4299 11.93C13.1099 11.37 13.9699 11.02 14.9099 11C15.9599 10.98 16.9199 11.36 17.6399 12C18.4499 12.71 18.9699 13.74 18.9999 14.91Z" stroke="#3D744B" stroke-width="1.5" stroke-miterlimit="10" stroke-linecap="round" stroke-linejoin="round"/>
<path d="M13.4399 15.03L14.45 15.99L16.5399 13.97" stroke="#3D744B" stroke-width="1.5" stroke-linecap="round" stroke-linejoin="round"/>
</svg>
