<svg width="44" height="44" viewBox="0 0 44 44" fill="none" xmlns="http://www.w3.org/2000/svg">
<rect width="44" height="44" rx="8" fill="#F4F0FE"/>
<path d="M19.16 20.87C19.06 20.86 18.94 20.86 18.83 20.87C16.45 20.79 14.56 18.84 14.56 16.44C14.56 13.99 16.54 12 19 12C21.45 12 23.44 13.99 23.44 16.44C23.43 18.84 21.54 20.79 19.16 20.87Z" stroke="#6926D7" stroke-width="1.5" stroke-linecap="round" stroke-linejoin="round"/>
<path d="M26.41 14C28.35 14 29.91 15.57 29.91 17.5C29.91 19.39 28.41 20.93 26.54 21C26.46 20.99 26.37 20.99 26.28 21" stroke="#6926D7" stroke-width="1.5" stroke-linecap="round" stroke-linejoin="round"/>
<path d="M14.16 24.56C11.74 26.18 11.74 28.82 14.16 30.43C16.91 32.27 21.42 32.27 24.17 30.43C26.59 28.81 26.59 26.17 24.17 24.56C21.43 22.73 16.92 22.73 14.16 24.56Z" stroke="#6926D7" stroke-width="1.5" stroke-linecap="round" stroke-linejoin="round"/>
<path d="M28.34 30C29.06 29.85 29.74 29.56 30.3 29.13C31.86 27.96 31.86 26.03 30.3 24.86C29.75 24.44 29.08 24.16 28.37 24" stroke="#6926D7" stroke-width="1.5" stroke-linecap="round" stroke-linejoin="round"/>
</svg>
