<svg width="191" height="390" viewBox="0 0 191 390" fill="none" xmlns="http://www.w3.org/2000/svg">
<g clip-path="url(#clip0_342_2375)">
<path d="M0 0H191V294.5C191 347.243 148.243 390 95.5 390C42.7568 390 0 347.243 0 294.5V0Z" fill="#CFCAFF"/>
<mask id="mask0_342_2375" style="mask-type:luminance" maskUnits="userSpaceOnUse" x="154" y="246" width="10" height="24">
<path d="M154.219 246.717H163.723V269.838H154.219V246.717Z" fill="white"/>
</mask>
<g mask="url(#mask0_342_2375)">
<path d="M163.255 268.08H155.161C154.925 268.08 154.73 267.886 154.73 267.649V247.509C154.73 247.273 154.925 247.079 155.161 247.079H163.255C163.491 247.079 163.685 247.273 163.685 247.509V267.649C163.685 267.886 163.491 268.08 163.255 268.08Z" fill="#777777"/>
</g>
<mask id="mask1_342_2375" style="mask-type:luminance" maskUnits="userSpaceOnUse" x="154" y="221" width="10" height="24">
<path d="M154.219 221.818H163.723V244.939H154.219V221.818Z" fill="white"/>
</mask>
<g mask="url(#mask1_342_2375)">
<path d="M163.255 244.154H155.161C154.925 244.154 154.73 243.959 154.73 243.73V223.583C154.73 223.347 154.925 223.152 155.161 223.152H163.255C163.491 223.152 163.685 223.347 163.685 223.583V243.73C163.685 243.959 163.491 244.154 163.255 244.154Z" fill="#777777"/>
</g>
<mask id="mask2_342_2375" style="mask-type:luminance" maskUnits="userSpaceOnUse" x="154" y="204" width="10" height="17">
<path d="M154.219 204.033H163.723V220.04H154.219V204.033Z" fill="white"/>
</mask>
<g mask="url(#mask2_342_2375)">
<path d="M163.255 218.477H155.161C154.925 218.477 154.73 218.282 154.73 218.046V205.902C154.73 205.666 154.925 205.472 155.161 205.472H163.255C163.491 205.472 163.685 205.666 163.685 205.902V218.046C163.685 218.282 163.491 218.477 163.255 218.477Z" fill="#777777"/>
</g>
<mask id="mask3_342_2375" style="mask-type:luminance" maskUnits="userSpaceOnUse" x="29" y="216" width="10" height="35">
<path d="M29 216.483H38.615V250.274H29V216.483Z" fill="white"/>
</mask>
<g mask="url(#mask3_342_2375)">
<path d="M37.3034 249.385H29.8282C29.4253 249.385 29.0918 249.052 29.0918 248.649V218.921C29.0918 218.512 29.4253 218.178 29.8282 218.178H37.3034C37.7064 218.178 38.0398 218.512 38.0398 218.921V248.649C38.0398 249.052 37.7064 249.385 37.3034 249.385Z" fill="#777777"/>
</g>
<path d="M145.305 418.682H47.3207C38.984 418.682 32.2383 411.916 32.2383 403.565V170.117C32.2383 161.767 38.984 155 47.3207 155H145.305C153.627 155 160.38 161.767 160.38 170.117V403.565C160.38 411.916 153.627 418.682 145.305 418.682Z" fill="#F1F1F1"/>
<path d="M49.3984 159.453H83.8914C90.6858 159.453 96.195 164.976 96.195 171.791V207.952C96.195 214.774 90.6858 220.297 83.8914 220.297H49.3984C42.604 220.297 37.0879 214.774 37.0879 207.952V171.791C37.0879 164.976 42.604 159.453 49.3984 159.453Z" fill="#EDEDE9"/>
<path d="M49.3967 160.759C43.3249 160.759 38.3923 165.706 38.3923 171.791V207.952C38.3923 214.038 43.3249 218.991 49.3967 218.991H83.8898C89.9547 218.991 94.8942 214.038 94.8942 207.952V171.791C94.8942 165.706 89.9547 160.759 83.8898 160.759H49.3967ZM83.8898 221.596H49.3967C41.8937 221.596 35.7871 215.483 35.7871 207.952V171.791C35.7871 164.268 41.8937 158.154 49.3967 158.154H83.8898C91.3928 158.154 97.4994 164.268 97.4994 171.791V207.952C97.4994 215.483 91.3928 221.596 83.8898 221.596Z" fill="#DBDBDB"/>
<path d="M82.8904 182.421C74.9011 182.282 74.9011 170.374 82.8904 170.228C90.8797 170.367 90.8797 182.275 82.8904 182.421Z" fill="#F1F2EF"/>
<path d="M82.8894 183.032C74.0942 182.879 74.0942 169.77 82.8894 169.617C91.6846 169.77 91.6846 182.879 82.8894 183.032ZM82.8894 170.228C74.9 170.374 74.9 182.282 82.8894 182.421C90.8787 182.275 90.8787 170.367 82.8894 170.228Z" fill="#9B9B9B"/>
<path d="M52.914 206.215C52.9001 209.251 48.301 209.251 48.2871 206.215C48.301 203.186 52.9001 203.186 52.914 206.215Z" fill="#6D6D6D"/>
<path d="M54.8726 188.965C48.7937 188.965 42.7218 184.922 42.5898 176.828C42.7288 168.735 48.8007 164.684 54.8726 164.684C60.9444 164.684 67.0233 168.735 67.1553 176.828C67.0163 184.922 60.9444 188.965 54.8726 188.965Z" fill="#A6A6A4"/>
<path d="M65.7852 176.828C65.5421 191.209 44.2002 191.209 43.957 176.828C44.2002 162.44 65.5421 162.44 65.7852 176.828Z" fill="#292D32"/>
<path d="M49.4883 176.828C49.6133 169.686 60.2079 169.686 60.326 176.828C60.2079 183.97 49.6133 183.963 49.4883 176.828Z" fill="#292D32"/>
<path d="M51.2461 176.828C51.3295 172.048 58.4156 172.048 58.499 176.828C58.4156 181.601 51.3295 181.601 51.2461 176.828Z" fill="#292D32"/>
<path d="M78.4303 213.482C72.3515 213.482 66.2796 209.432 66.1406 201.338C66.2796 193.245 72.3515 189.201 78.4303 189.201C84.5022 189.201 90.574 193.245 90.713 201.338C90.574 209.432 84.5022 213.482 78.4303 213.482Z" fill="#A6A6A4"/>
<path d="M89.3438 201.338C89.1007 215.726 67.7588 215.719 67.5156 201.338C67.7588 186.957 89.1007 186.957 89.3438 201.338Z" fill="#292D32"/>
<path d="M70.7188 201.338C70.8924 191.132 86.0444 191.132 86.218 201.338C86.0444 211.55 70.8924 211.543 70.7188 201.338Z" fill="#292D32"/>
<path d="M74.8027 201.338C74.8861 196.565 81.9723 196.565 82.0556 201.338C81.9723 206.118 74.8792 206.118 74.8027 201.338Z" fill="#292D32"/>
<path d="M65.8477 176.821C65.6046 191.202 44.2627 191.202 44.0195 176.821C44.2627 162.434 65.6115 162.44 65.8477 176.821Z" fill="#292D32"/>
<path d="M47.2305 176.821C47.4041 166.616 62.5491 166.616 62.7228 176.821C62.5491 187.034 47.4041 187.027 47.2305 176.821Z" fill="#292D32"/>
<path d="M51.3086 176.821C51.392 172.042 58.4851 172.042 58.5615 176.821C58.4781 181.601 51.392 181.601 51.3086 176.821Z" fill="#292D32"/>
</g>
<defs>
<clipPath id="clip0_342_2375">
<path d="M0 0H191V294.5C191 347.243 148.243 390 95.5 390C42.7568 390 0 347.243 0 294.5V0Z" fill="white"/>
</clipPath>
</defs>
</svg>
